<svg xmlns="http://www.w3.org/2000/svg" width="31" height="31" viewBox="0 0 31 31">
  <path fill="#434343" fill-rule="evenodd" stroke="#434343" stroke-width="1.6" d="M702.95637,54.3477862 L691.498708,65.8042917 L680.043495,54.3479222 C679.29917,53.6035229 678.092321,53.603462 677.347922,54.3477862 C677.347899,54.3478088 677.347877,54.3478315 677.347854,54.3478542 C676.603444,55.0922645 676.603413,56.2991826 677.347786,57.0436305 L688.804292,68.5012917 L677.347922,79.9565055 C676.603523,80.7008297 676.603462,81.9076785 677.347786,82.6520778 C677.347809,82.6521005 677.347832,82.6521232 677.347854,82.6521458 C678.092216,83.3965076 679.299065,83.3965076 680.043427,82.6521458 C680.043449,82.6521232 680.043472,82.6521005 680.043495,82.6520778 L691.498708,71.1957083 L702.95637,82.6522138 C703.700817,83.3965866 704.907736,83.3965561 705.652146,82.6521458 C706.396508,81.9077841 706.396508,80.7009352 705.652146,79.9565735 C705.652123,79.9565508 705.652101,79.9565281 705.652078,79.9565055 L694.195708,68.5012917 L705.652214,57.0436305 C706.396587,56.2991826 706.396556,55.0922645 705.652146,54.3478542 C704.907736,53.6034439 703.700817,53.6034134 702.95637,54.3477862 Z" transform="translate(-676 -53)"/>
</svg>
