<svg xmlns="http://www.w3.org/2000/svg" xmlns:xlink="http://www.w3.org/1999/xlink" width="40" height="33" viewBox="0 0 40 33">
  <defs>
    <polygon id="currency-a" points="0 .226 39.987 .226 39.987 32.536 0 32.536"/>
  </defs>
  <g fill="none" fill-rule="evenodd">
    <path fill="#434343" d="M35.5584593 23.4588036L35.4545316 23.5660271C34.8227608 24.217833 34.0843273 24.714447 33.2788878 25.0445824 33.2652131 25.0502257 33.2501709 25.0558691 33.2364962 25.0629233 32.4994302 25.3577878 31.7104004 25.5143905 30.8981235 25.5143905 29.6646661 25.5143905 28.5118894 25.2308126 27.5300463 24.7172686 27.5095343 24.7073928 27.4876548 24.6946953 27.4671427 24.6834086 27.4151789 24.6551919 27.3632151 24.6269752 27.3112512 24.5973476 27.2975765 24.5902935 27.2839018 24.5818284 27.2702272 24.5733634 26.2883841 24.0005643 25.4979868 23.1893341 25.0015954 22.1918736L24.9058725 22 22.7110841 24.405474C22.7110841 24.405474 22.244777 26.7164221 22.0150422 27.8422686L22 27.9184537 22.0492289 27.976298C22.0505964 27.976298 22.0519638 27.9777088 22.0533313 27.9791196 22.0629036 27.9918172 22.0738433 28.0031038 22.0847831 28.0143905 24.3411077 30.5792889 27.1977513 31.9181716 30.5822381 31.9971783 30.5986477 31.9971783 30.6150574 31.9971783 30.6300995 31.9971783 30.6465092 31.9971783 30.6629188 31.9971783 30.6793284 31.9971783 30.7039429 31.9985892 30.7285573 31.9985892 30.7531718 31.9985892 30.8010332 31.9985892 30.8488946 32 30.8981235 32 33.069665 32 35.1591582 31.4398984 37.0134468 30.3860045 37.0325914 30.3761287 37.0503685 30.3662528 37.0681456 30.3549661 38.0923802 29.7666479 39.0441389 29.028781 39.8960723 28.1484199L40 28.0411964 35.5584593 23.4588036zM6.08317682 13.2142193L6.09390931 13.2612388 6.90823719 16.7278569 7.09068956 16.4329166C7.94660585 15.0394301 9.43708076 14.0363478 11.0872015 13.660192 11.1113496 13.6544926 11.1354977 13.6487933 11.1596458 13.643094 11.7217601 13.5219832 12.3013147 13.4735389 12.8808693 13.5091597 13.7904481 13.5633033 14.6195331 13.8796162 15.3372686 14.2970922 15.357392 14.3084909 15.3775154 14.3198895 15.3976389 14.332713 17.0450765 15.3115732 18.0821036 16.8062227 18.0982023 16.8275952L18.2149182 17 20.2849477 13.9508578 20.302388 13.9252109 21 10.6965398 20.9329219 10.635272C20.868527 10.5768538 20.792058 10.5041874 20.7035149 10.4201222 19.9683391 9.72195415 18.4403005 8.26862472 16.1368393 7.49779018 15.2151865 7.1900263 14.2693856 7.02617053 13.3021197 7.00194838 13.2860209 7.00194838 13.2712638 7.00194838 13.255165 7.00194838 11.2441642 6.96205306 9.14327878 7.53483584 6.97665683 8.72029671L6.91762812 8.75306786 6 12.8608608 6.08317682 13.2142193z"/>
    <mask id="currency-b" fill="#fff">
      <use xlink:href="#currency-a"/>
    </mask>
    <path fill="#434343" d="M24.8509333,21.9382216 C24.8509333,21.9382216 24.8509333,21.9327989 24.8509333,21.9260205 C24.8509333,21.9151751 24.8509333,21.9002627 24.8496,21.8785719 C24.8456,21.6345503 24.8296,20.686933 24.8269333,20.1297503 L24.8282667,19.9833373 C24.8282667,18.5042951 25.3189333,17.0957481 26.2176,15.9502022 C26.2282667,15.9366454 26.2376,15.9244443 26.2469333,15.9108876 C26.3789333,15.7454951 26.5202667,15.5855254 26.6696,15.4309784 C27.8602667,14.2027362 29.4376,13.5276097 31.1109333,13.5276097 C31.3789333,13.5276097 31.6429333,13.5452335 31.9042667,13.5791254 C31.9189333,13.5804811 31.9336,13.5818368 31.9482667,13.5845481 C33.3096,13.7675643 34.5669333,14.3952422 35.5536,15.3984422 L35.6562667,15.5014735 L39.9869333,11.0982389 L39.8842667,10.9952076 C37.7402667,8.81392541 34.9549333,7.53010054 31.9656,7.32403784 C31.9496,7.32268216 31.9349333,7.32132649 31.9202667,7.32132649 C31.6522667,7.3037027 31.3816,7.29421297 31.1109333,7.29421297 C29.1789333,7.29421297 27.4069333,7.63448757 25.8482667,8.30825838 C24.7096,8.79901297 23.7016,9.4605827 22.8376,10.2821222 C22.8202667,10.2970346 22.8042667,10.3133027 22.7882667,10.3282151 L22.7362667,10.3309265 L22.7549333,10.3607514 C22.7442667,10.3715968 22.7322667,10.3824422 22.7216,10.3932876 L22.7136,10.3810865 L22.7122667,10.4027773 C22.6962667,10.4176897 22.6816,10.4326022 22.6656,10.4475146 C22.3602667,10.7511859 22.0736,11.0751924 21.8069333,11.4195341 L21.7869333,11.4452919 L21.0509333,14.5294541 L18.7282667,17.7383384 L18.6962667,19.9765589 C18.5789333,22.6228378 17.1122667,24.7932746 15.0042667,25.7774951 C14.9896,25.7842735 14.9762667,25.7910519 14.9616,25.7978303 C14.1856,26.1516616 13.3256,26.3482346 12.4136,26.3482346 C8.94826667,26.3482346 6.13093333,23.4931816 6.13093333,19.9833373 L6.13093333,17.9037308 L6.13093333,17.8576378 L6.13093333,17.7478281 L5.06693333,13.2388508 L6.0856,9.06201405 L6.13093333,2.49783243 L0.000266666667,0.22572 L0.000266666667,14.7490735 L0.000266666667,14.8127903 L0.000266666667,19.9833373 C0.000266666667,20.1595751 0.00426666667,20.335813 0.0122666667,20.5106951 C0.0136,20.5432314 0.0136,20.5757676 0.0162666667,20.6083038 C0.192266667,24.2455816 1.90826667,27.4815795 4.5176,29.6615059 L4.55893333,29.6967535 C6.70026667,31.4699773 9.43626667,32.5355384 12.4136,32.5355384 C12.5562667,32.5355384 12.6976,32.5341827 12.8376,32.5301157 C12.8696,32.52876 12.9029333,32.5274043 12.9349333,32.5274043 C16.0816,32.424373 18.6989333,31.3954151 20.7376,29.4581546 C20.7496,29.4459535 20.7616,29.4337524 20.7736,29.4215514 C21.0682667,29.1395708 21.3509333,28.8372551 21.6216,28.5173157 L21.6456,28.4874908 L22.3656,24.8569914 L24.8522667,21.99516 L24.8509333,21.9382216 Z" mask="url(#currency-b)"/>
  </g>
</svg>
