<svg xmlns="http://www.w3.org/2000/svg" xmlns:xlink="http://www.w3.org/1999/xlink" width="18" height="18" viewBox="0 0 18 18">
  <defs>
    <polygon id="filter-a" points="0 0 18 0 18 18 0 18"/>
  </defs>
  <g fill="none" fill-rule="evenodd">
    <mask id="filter-b" fill="#fff">
      <use xlink:href="#filter-a"/>
    </mask>
    <path fill="#434343" d="M17.1695728,0 L0.830066779,0 C0.472640085,0 0.221538219,0.16634618 0.076805894,0.498635548 C-0.0677922958,0.847940138 -0.00823608404,1.14642295 0.255608665,1.39350188 L6.54916216,7.69598476 L6.54916216,13.9090034 C6.54916216,14.1308729 6.63004593,14.3223837 6.79167934,14.4845657 L10.0594464,17.7569958 C10.2127634,17.9188195 10.4041749,18 10.6340387,18 C10.7360711,18 10.842396,17.9785966 10.9530131,17.9360138 C11.2850435,17.7909814 11.4511481,17.5396935 11.4511481,17.1817469 L11.4511481,7.69602953 L17.7444333,1.39354665 C18.0083675,1.14646772 18.0677449,0.848074469 17.9231467,0.498635548 C17.7782355,0.16634618 17.5274019,0 17.1695728,0 Z" mask="url(#filter-b)"/>
  </g>
</svg>
