<svg xmlns="http://www.w3.org/2000/svg" width="27" height="34" viewBox="0 0 27 34">
  <path fill="#787D85" fill-rule="evenodd" d="M14.0415466,83.9554063 L14.0592517,75.927922 C14.0647463,73.2009841 15.8608897,70.9951211 18.0666906,71 L31.0560675,71.0262757 C33.2636999,71.0317735 35.0482434,73.244967 35.0415466,75.9725157 L35.0238227,84 L31.7319107,83.9920586 L31.7490052,75.9645743 C31.7538893,74.9315878 31.2135811,74.3543127 31.0481307,74.3170494 L18.0599749,74.2907819 C17.8963561,74.3231581 17.3523847,74.8986007 17.3511637,75.9352524 L17.3328481,83.961515 L14.0415466,83.9554063 Z M37.0415466,86.8343642 L37.0139861,99.9710593 C37.0078685,102.199865 34.7908367,104.00604 32.0586999,104 L15.9784902,103.965472 C13.2488004,103.960628 11.036051,102.14416 11.0415466,99.9153543 L11.0684745,86.7780537 C11.0703098,86.5134549 11.1045686,86.2530945 11.1639096,86 L36.9503627,86.0526776 C37.0078685,86.308194 37.042739,86.5697654 37.0415466,86.8343642 L37.0415466,86.8343642 Z M27.0415466,91.7902956 C27.0437695,90.2522556 25.9267853,89.0031017 24.5459991,89 C23.1652129,88.9981423 22.0437764,90.2410969 22.0415466,91.7772771 C22.0398806,92.8912868 22.6270347,93.8478349 23.4746515,94.2960425 L23.4663033,98.8146938 C23.4640772,99.4699571 23.9382528,99.9993752 24.525407,100 C25.1142307,100.001855 25.5884064,99.4742966 25.590076,98.8184133 L25.5984242,94.299762 C26.4465976,93.855894 27.0409868,92.9030654 27.0415466,91.7902956 L27.0415466,91.7902956 Z" transform="translate(-11 -70.202)"/>
</svg>
