<svg xmlns="http://www.w3.org/2000/svg" xmlns:xlink="http://www.w3.org/1999/xlink" width="35" height="36" viewBox="0 0 35 36">
  <defs>
    <polygon id="labelempty-a" points="0 0 35 0 35 35 0 35"/>
  </defs>
  <g fill="none" fill-rule="evenodd" transform="translate(0 .798)">
    <mask id="labelempty-b" fill="#fff">
      <use xlink:href="#labelempty-a"/>
    </mask>
    <path fill="#787D85" d="M31.9117907,18.5075479 C31.7068596,19.4055606 31.2451889,20.2356467 30.585495,20.8953407 L17.9281211,33.5527146 C16.05611,35.4247257 13.0869116,35.4891984 11.2954914,33.6966269 L1.3033731,23.7045086 C-0.489198409,21.9130884 -0.424725702,18.94389 1.44728539,17.0718789 L14.1046593,4.414505 C14.7643533,3.75481106 15.5944394,3.29429172 16.4924521,3.08820932 L25.5048154,1.026234 C27.0590682,0.670482811 28.6547677,1.11488397 29.7485011,2.20861739 L30.2067178,2.66683413 L28.733056,4.140496 C27.8718848,3.96780125 26.9439384,4.21417909 26.2761853,4.88193213 C25.2146883,5.94342919 25.2146883,7.66346891 26.2761853,8.72381468 C27.3365311,9.78531174 29.0565708,9.78531174 30.1180679,8.72381468 C30.7858209,8.05606164 31.0321988,7.12811518 30.859504,6.26694403 C30.816906,6.31069336 32.2894165,4.83703149 32.3331659,4.79328216 L32.7913826,5.25149889 C33.885116,6.34523231 34.3295172,7.94093181 33.973766,9.49518456 L31.9117907,18.5075479 Z M34.6979327,0.302067344 C34.3226094,-0.0721046159 33.7446576,-0.103189671 33.4073272,0.234140742 C33.3221311,0.319336819 27.3491954,6.29227259 27.4965616,6.1449064 C27.1592311,6.48223682 27.1903162,7.06133988 27.5644882,7.43551184 C27.9386601,7.8096838 28.5177632,7.84076885 28.8550936,7.50343844 C28.9541053,7.40442678 34.8648709,1.49366112 34.7658593,1.59267278 C35.1031897,1.25534237 35.0721046,0.677390601 34.6979327,0.302067344 L34.6979327,0.302067344 Z" mask="url(#labelempty-b)"/>
  </g>
</svg>
