<svg xmlns="http://www.w3.org/2000/svg" xmlns:xlink="http://www.w3.org/1999/xlink" width="21" height="21" viewBox="0 0 21 21">
  <defs>
    <polygon id="loep-a" points=".831 0 20.831 0 20.831 21 .831 21"/>
  </defs>
  <g fill="none" fill-rule="evenodd" transform="translate(.05)">
    <mask id="loep-b" fill="#fff">
      <use xlink:href="#loep-a"/>
    </mask>
    <path fill="#434343" d="M13.0962293,12.8788159 C12.0425652,13.9853098 10.7746237,14.5386009 9.29211005,14.5386009 C7.80984899,14.5386009 6.54190746,13.9851772 5.48815919,12.8788159 C4.43441092,11.7724547 3.90751573,10.4412319 3.90751573,8.88461708 C3.90751573,7.32822331 4.43453721,5.99664687 5.48815919,4.89041823 C6.54169698,3.78392436 7.80984899,3.23072163 9.29211005,3.23072163 C10.7744553,3.23072163 12.0423968,3.78410117 13.0962293,4.89041823 C14.1500618,5.99664687 14.6769149,7.32822331 14.6769149,8.88461708 C14.6769149,10.4412319 14.1498513,11.7724547 13.0962293,12.8788159 M16.2632836,13.9203311 C17.2568321,12.4144616 17.7538379,10.7356692 17.7538379,8.8848823 C17.7538379,7.6817603 17.5313935,6.53106325 17.0865047,5.43318901 C16.6419106,4.33509374 16.0408392,3.38861537 15.2836694,2.59353287 C14.5264576,1.79845036 13.6251452,1.16736164 12.579606,0.700487708 C11.5336879,0.233481168 10.4379261,0 9.29211005,0 C8.14637824,0 7.05053223,0.233481168 6.00490882,0.700487708 C4.95907492,1.16736164 4.05772043,1.79845036 3.30050857,2.59348866 C2.54321251,3.38861537 1.94226742,4.33527056 1.4975891,5.43318901 C1.05286868,6.53119586 0.830508475,7.6817603 0.830508475,8.8848823 C0.830508475,10.0879159 1.05286868,11.2381709 1.4975891,12.3363988 C1.94222532,13.434273 2.54321251,14.380663 3.30050857,15.1757455 C4.05772043,15.9710932 4.95928541,16.6019167 6.00490882,17.0690559 C7.05065853,17.5359298 8.14637824,17.769411 9.29211005,17.769411 C11.0551209,17.769411 12.6536559,17.2475041 14.0879676,16.2043534 L18.2105141,20.5204398 C18.4990098,20.8400287 18.8591138,21 19.2921732,21 C19.7088144,21 20.0695498,20.8400729 20.3738322,20.5204398 C20.6781988,20.2008508 20.8305085,19.8222064 20.8305085,19.3847276 C20.8305085,18.9390712 20.6824086,18.56025 20.3859143,18.248927 L16.2632836,13.9203311 Z" mask="url(#loep-b)"/>
  </g>
</svg>
