<svg xmlns="http://www.w3.org/2000/svg" width="24" height="24" viewBox="0 0 24 24">
  <defs>
    <linearGradient id="fill-1-copy-a" x1="100%" x2="0%" y1="0%" y2="100%">
      <stop offset="0%" stop-color="#68E0AB"/>
      <stop offset="100%" stop-color="#37BE72"/>
    </linearGradient>
  </defs>
  <path fill="url(#fill-1-copy-a)" fill-rule="evenodd" stroke="url(#fill-1-copy-a)" stroke-width="1.6" d="M29.9129649,16.6956316 L23.9993333,22.6086667 L18.0869649,16.6957018 C17.7027976,16.3114957 17.0799078,16.3114642 16.6957018,16.6956316 C16.6956901,16.6956433 16.6956784,16.695655 16.6956667,16.6956667 C16.3114549,17.0798784 16.3114392,17.7028039 16.6956316,18.0870351 L22.6086667,24.0006667 L16.6957018,29.9130351 C16.3114957,30.2972024 16.3114642,30.9200922 16.6956316,31.3042982 C16.6956433,31.3043099 16.695655,31.3043216 16.6956667,31.3043333 C17.0798534,31.68852 17.7027431,31.68852 18.0869298,31.3043333 C18.0869415,31.3043216 18.0869532,31.3043099 18.0869649,31.3042982 L23.9993333,25.3913333 L29.9129649,31.3043684 C30.2971961,31.6885608 30.9201216,31.6885451 31.3043333,31.3043333 C31.68852,30.9201466 31.68852,30.2972569 31.3043333,29.9130702 C31.3043216,29.9130585 31.3043099,29.9130468 31.3042982,29.9130351 L25.3913333,24.0006667 L31.3043684,18.0870351 C31.6885608,17.7028039 31.6885451,17.0798784 31.3043333,16.6956667 C30.9201216,16.3114549 30.2971961,16.3114392 29.9129649,16.6956316 Z" transform="rotate(-45 3.515 32.485)"/>
</svg>
