<svg xmlns="http://www.w3.org/2000/svg" width="31" height="33" viewBox="0 0 31 33">
  <g fill="#434343" fill-rule="evenodd">
    <path d="M23.7522526,8.68958333 L16.7521948,0.35625 C16.5621933,0.13125 16.288191,0 16.0001886,0 C15.7121863,0 15.438184,0.13125 15.2481824,0.35625 L8.24812466,8.68958333 C7.99012254,8.99791667 7.92612201,9.43333333 8.09012336,9.80625 C8.2521247,10.1770833 8.60812764,10.4166667 9.00013087,10.4166667 L13.0001639,10.4166667 L13.0001639,23.9583333 C13.0001639,24.5333333 13.4481676,25 14.0001721,25 L18.0002051,25 C18.5522097,25 19.0002134,24.5333333 19.0002134,23.9583333 L19.0002134,10.4166667 L23.0002464,10.4166667 C23.3922496,10.4166667 23.7482526,10.1791667 23.9101914,9.80625 C24.0722553,9.43333333 24.0122548,8.99583333 23.7522526,8.68958333"/>
    <path d="M26.8666667,25.0666667 L26.8666667,29 L4.13333333,29 L4.13333333,25.0666667 C4.13333333,23.9252782 3.20805515,23 2.06666667,23 C0.925278184,23 -1.39779775e-16,23.9252782 0,25.0666667 L0,31 C0,32.106 0.925866667,33 2.06666667,33 L28.9333333,33 C30.0762,33 31,32.106 31,31 L31,25.0666667 C31,23.9252782 30.0747218,23 28.9333333,23 C27.7919449,23 26.8666667,23.9252782 26.8666667,25.0666667 Z"/>
  </g>
</svg>
