<svg xmlns="http://www.w3.org/2000/svg" xmlns:xlink="http://www.w3.org/1999/xlink" width="16" height="21" viewBox="0 0 16 21">
  <defs>
    <polygon id="group-6-a" points=".001 .051 13.969 .051 13.969 16 .001 16"/>
  </defs>
  <g fill="none" fill-rule="evenodd">
    <g transform="translate(1 5)">
      <mask id="group-6-b" fill="#fff">
        <use xlink:href="#group-6-a"/>
      </mask>
      <path fill="#37BE72" d="M3.0445387,3.75979871 C3.0445387,3.52186323 3.24504444,3.32888258 3.49237778,3.32888258 L4.20879157,3.32888258 C4.45607126,3.32888258 4.65663065,3.52181161 4.65663065,3.75979871 L4.65663065,12.2910503 C4.65663065,12.5290374 4.4561249,12.7219665 4.20879157,12.7219665 L3.49237778,12.7219665 C3.24509808,12.7219665 3.0445387,12.5291406 3.0445387,12.2910503 L3.0445387,3.75979871 Z M6.17930498,3.75979871 C6.17930498,3.52186323 6.37981073,3.32888258 6.62714406,3.32888258 L7.34350421,3.32888258 C7.59073027,3.32888258 7.7913433,3.52181161 7.7913433,3.75979871 L7.7913433,12.2910503 C7.7913433,12.5290374 7.59089119,12.7219665 7.34350421,12.7219665 L6.62714406,12.7219665 C6.37986437,12.7219665 6.17930498,12.5291406 6.17930498,12.2910503 L6.17930498,3.75979871 Z M9.31396398,3.75979871 C9.31396398,3.52186323 9.51446973,3.32888258 9.7618567,3.32888258 L10.4782169,3.32888258 C10.7254429,3.32888258 10.9261096,3.52181161 10.9261096,3.75979871 L10.9261096,12.2910503 C10.9261096,12.5290374 10.7256038,12.7219665 10.4782169,12.7219665 L9.7618567,12.7219665 C9.51457701,12.7219665 9.31396398,12.5291406 9.31396398,12.2910503 L9.31396398,3.75979871 Z M0.736577011,14.9832826 C0.761304981,15.5515406 1.24728199,16.0000052 1.83828582,16.0000052 L12.1323625,16.0000052 C12.7233663,16.0000052 13.2093433,15.5515406 13.2340713,14.9832826 L13.9692054,0.050843871 L0.00144291188,0.050843871 L0.736577011,14.9832826 Z" mask="url(#group-6-b)"/>
    </g>
    <path fill="#37BE72" d="M15.3220562,1.13028065 L10.6692593,1.13028065 L10.6692593,0.231234054 C10.6692593,0.103504767 10.5679356,0 10.4429627,0 L5.55698473,0 C5.43211693,0 5.33084579,0.103504767 5.33084579,0.231180341 L5.33084579,1.13022694 L0.677943833,1.13022694 C0.303498111,1.13022694 0,1.44041896 0,1.82312341 L0,2.99551497 C0,3.55026185 0.439980292,4 0.982755789,4 L15.0171917,4 C15.5600197,4 16,3.55026185 16,2.99551497 L16,1.82323083 C16,1.44052639 15.6965019,1.13028065 15.3220562,1.13028065"/>
  </g>
</svg>
